# Blender 3.2.0 Beta
# www.blender.org
mtllib pool_v2.mtl
o Cube.005
v -24.700001 -11.399999 1.600000
v -24.664553 11.404461 1.633914
v 24.700001 -11.399999 -0.100000
v 24.700001 11.399999 -0.100000
v 17.635448 11.404461 -0.066086
v 17.600000 -11.399999 -0.100000
v 35.000000 27.499998 4.000000
v 35.000000 27.499998 -4.000000
v 35.000000 -27.499998 4.000000
v 35.000000 -27.499998 -4.000000
v -35.000000 27.499998 4.000000
v -35.000000 27.499998 -4.000000
v -35.000000 -27.499998 4.000000
v -35.000000 -27.499998 -4.000000
v -24.700001 -11.399999 4.000000
v -24.664553 11.404461 4.033914
v 17.635448 11.404461 4.033914
v 24.700001 11.399999 4.000000
v 24.700001 -11.399999 4.000000
v 17.600000 -11.399999 4.000000
v -24.664553 11.404461 1.633914
v -24.664553 11.404461 1.633914
v -24.700001 -11.399999 1.600000
v -24.700001 -11.399999 1.600000
v 17.635448 11.404461 -0.066086
v 24.700001 -11.399999 -0.100000
v 24.700001 -11.399999 -0.100000
v 24.700001 11.399999 -0.100000
v 24.700001 11.399999 -0.100000
v 17.600000 -11.399999 -0.100000
v -35.000000 27.499998 -4.000000
v -35.000000 27.499998 -4.000000
v -35.000000 -27.499998 -4.000000
v -35.000000 -27.499998 -4.000000
v 35.000000 27.499998 -4.000000
v 35.000000 27.499998 -4.000000
v 35.000000 27.499998 4.000000
v 35.000000 27.499998 4.000000
v -35.000000 -27.499998 4.000000
v -35.000000 -27.499998 4.000000
v 35.000000 -27.499998 4.000000
v 35.000000 -27.499998 4.000000
v 35.000000 -27.499998 -4.000000
v 35.000000 -27.499998 -4.000000
v -35.000000 27.499998 4.000000
v -35.000000 27.499998 4.000000
v -24.700001 -11.399999 4.000000
v -24.700001 -11.399999 4.000000
v -24.664553 11.404461 4.033914
v -24.664553 11.404461 4.033914
v 24.700001 11.399999 4.000000
v 24.700001 11.399999 4.000000
v 17.635448 11.404461 4.033914
v 24.700001 -11.399999 4.000000
v 24.700001 -11.399999 4.000000
v 17.600000 -11.399999 4.000000
vn -0.0000 -1.0000 -0.0000
vn -1.0000 -0.0000 -0.0000
vn -0.0000 -0.0000 -1.0000
vn 1.0000 -0.0000 -0.0000
vn -0.0000 1.0000 -0.0000
vn 1.0000 -0.0016 -0.0000
vn -0.0006 -1.0000 -0.0000
vn 0.0024 -0.0007 1.0000
vn 0.0402 -0.0015 0.9992
vn -0.0005 -0.0001 1.0000
vn 0.0002 0.0013 1.0000
vt 0.995951 0.003560
vt 0.956223 0.680260
vt 0.928613 0.072860
vt 0.991546 0.001628
vt 0.929153 0.159785
vt 0.928613 0.160221
vt 0.455089 0.468906
vt 0.455089 0.468906
vt 0.455089 0.468504
vt 0.455089 0.468504
vt 0.454428 0.468906
vt 0.454428 0.468906
vt 0.454428 0.468504
vt 0.454428 0.468504
vt 0.454526 0.468622
vt 0.454526 0.468788
vt 0.454925 0.468788
vt 0.454992 0.468788
vt 0.454992 0.468622
vt 0.454925 0.468622
vt -0.015073 0.101252
vt -0.001073 0.004382
vt 1.006058 0.102425
vt 0.955683 0.680696
vt 0.991742 0.165362
vt -0.001073 0.984761
vt 1.005858 0.143894
vt -0.005282 0.001628
vt -0.015073 0.143894
vt 0.928613 0.072860
vt -0.005282 0.166184
vt 0.995951 0.983939
vt 0.454428 0.468906
vt 0.454428 0.468906
vt 0.454428 0.468504
vt 0.454428 0.468504
vt 0.455089 0.468906
vt 0.455089 0.468906
vt 0.455089 0.468906
vt 0.455089 0.468906
vt 0.454428 0.468504
vt 0.454428 0.468504
vt 0.455089 0.468504
vt 0.455089 0.468504
vt 0.455089 0.468504
vt 0.455089 0.468504
vt 0.454428 0.468906
vt 0.454428 0.468906
vt 1.006058 0.019384
vt 0.993899 0.680696
vt -0.015073 0.018210
vt 0.994439 0.680260
vt 0.993899 0.072860
vt -0.015073 0.002031
vt 0.994439 0.159785
vt 1.005858 0.002031
vt 0.993899 0.072860
vt 0.993899 0.160221
s 0
usemtl Pool.001
f 43/45/1 41/43/1 39/41/1 34/36/1
f 33/35/2 40/42/2 45/47/2 31/33/2
f 32/34/3 35/37/3 44/46/3 14/14/3
f 36/38/4 37/39/4 42/44/4 10/10/4
f 12/12/5 46/48/5 38/40/5 8/8/5
f 47/49/6 23/23/6 21/21/6 49/51/6
f 53/55/7 5/5/7 29/30/7 51/53/7
f 28/29/2 26/27/2 54/56/2 52/54/2
f 6/6/5 24/24/5 48/50/5 56/58/5
f 4/4/8 25/25/8 30/31/8 27/28/8
f 22/22/9 1/1/9 30/32/9 25/26/9
f 3/3/5 6/6/5 56/58/5 55/57/5
f 50/52/1 2/2/1 5/5/1 53/55/1
f 11/11/10 13/13/10 9/9/10 19/19/10 20/20/10 15/15/10 16/16/10
f 19/19/11 9/9/11 7/7/11 11/11/11 16/16/11 17/17/11 18/18/11
